{
    "asset" : {
        "generator" : "Khronos glTF Blender I/O v1.7.33",
        "version" : "2.0"
    },
    "scene" : 0,
    "scenes" : [
        {
            "name" : "Scene",
            "nodes" : [
                0
            ]
        }
    ],
    "nodes" : [
        {
            "mesh" : 0,
            "name" : "Table_low"
        }
    ],
    "meshes" : [
        {
            "name" : "Table_low",
            "primitives" : [
                {
                    "attributes" : {
                        "POSITION" : 0,
                        "NORMAL" : 1,
                        "TEXCOORD_0" : 2
                    },
                    "indices" : 3
                }
            ]
        }
    ],
    "accessors" : [
        {
            "bufferView" : 0,
            "componentType" : 5126,
            "count" : 2802,
            "max" : [
                1,
                0.7199999690055847,
                0.6000000238418579
            ],
            "min" : [
                -1,
                -0.002151013584807515,
                -0.6000000238418579
            ],
            "type" : "VEC3"
        },
        {
            "bufferView" : 1,
            "componentType" : 5126,
            "count" : 2802,
            "type" : "VEC3"
        },
        {
            "bufferView" : 2,
            "componentType" : 5126,
            "count" : 2802,
            "type" : "VEC2"
        },
        {
            "bufferView" : 3,
            "componentType" : 5123,
            "count" : 4704,
            "type" : "SCALAR"
        }
    ],
    "bufferViews" : [
        {
            "buffer" : 0,
            "byteLength" : 33624,
            "byteOffset" : 0
        },
        {
            "buffer" : 0,
            "byteLength" : 33624,
            "byteOffset" : 33624
        },
        {
            "buffer" : 0,
            "byteLength" : 22416,
            "byteOffset" : 67248
        },
        {
            "buffer" : 0,
            "byteLength" : 9408,
            "byteOffset" : 89664
        }
    ],
    "buffers" : [
        {
            "byteLength" : 99072,
            "uri" : "data:application/octet-stream;base64,"
        }
    ]
}
