{
    "asset" : {
        "generator" : "Khronos glTF Blender I/O v1.7.33",
        "version" : "2.0"
    },
    "scene" : 0,
    "scenes" : [
        {
            "name" : "Scene",
            "nodes" : [
                0
            ]
        }
    ],
    "nodes" : [
        {
            "mesh" : 0,
            "name" : "WineBottle"
        }
    ],
    "meshes" : [
        {
            "name" : "Winebottle",
            "primitives" : [
                {
                    "attributes" : {
                        "POSITION" : 0,
                        "NORMAL" : 1,
                        "TEXCOORD_0" : 2,
                        "COLOR_0" : 3
                    },
                    "indices" : 4
                }
            ]
        }
    ],
    "accessors" : [
        {
            "bufferView" : 0,
            "componentType" : 5126,
            "count" : 52156,
            "max" : [
                0.0061270250007510185,
                0.15707117319107056,
                0.03866035118699074
            ],
            "min" : [
                -0.0695120245218277,
                -0.14458364248275757,
                -0.03865986317396164
            ],
            "type" : "VEC3"
        },
        {
            "bufferView" : 1,
            "componentType" : 5126,
            "count" : 52156,
            "type" : "VEC3"
        },
        {
            "bufferView" : 2,
            "componentType" : 5126,
            "count" : 52156,
            "type" : "VEC2"
        },
        {
            "bufferView" : 3,
            "componentType" : 5123,
            "count" : 52156,
            "normalized" : true,
            "type" : "VEC4"
        },
        {
            "bufferView" : 4,
            "componentType" : 5123,
            "count" : 78324,
            "type" : "SCALAR"
        }
    ],
    "bufferViews" : [
        {
            "buffer" : 0,
            "byteLength" : 625872,
            "byteOffset" : 0
        },
        {
            "buffer" : 0,
            "byteLength" : 625872,
            "byteOffset" : 625872
        },
        {
            "buffer" : 0,
            "byteLength" : 417248,
            "byteOffset" : 1251744
        },
        {
            "buffer" : 0,
            "byteLength" : 417248,
            "byteOffset" : 1668992
        },
        {
            "buffer" : 0,
            "byteLength" : 156648,
            "byteOffset" : 2086240
        }
    ],
    "buffers" : [
        {
            "byteLength" : 2242888,
            "uri" : "data:application/octet-stream;base64,"
        }
    ]
}
